<svg width="33" height="31" viewBox="0 0 33 31" fill="none" xmlns="http://www.w3.org/2000/svg">
<g id="Medium">
<path id="Combined Shape" fill-rule="evenodd" clip-rule="evenodd" d="M0 15.5C0 6.93959 7.3873 0 16.5 0C25.6127 0 33 6.93959 33 15.5C33 24.0604 25.6127 31 16.5 31C7.3873 31 0 24.0604 0 15.5ZM13.8466 11.3259L8.56382 8.874C8.51862 8.85299 8.47553 8.84309 8.4366 8.84309C8.38114 8.84309 8.33424 8.86333 8.30124 8.90028C8.26894 8.93642 8.25 8.98866 8.25 9.05402V19.5801C8.25 19.7593 8.39123 19.9714 8.56382 20.0515L13.4457 22.3173C13.5135 22.3488 13.5781 22.3637 13.6365 22.3637C13.801 22.3637 13.9164 22.2456 13.9164 22.0473V11.4308C13.9164 11.3864 13.8894 11.3458 13.8466 11.3259ZM24.778 22.3138L20.0341 20.1121L25.2487 12.2463V22.0438C25.2487 22.3125 25.0369 22.434 24.778 22.3138ZM14.4172 12.1138V17.5083L19.5829 19.9058L14.4172 12.1138ZM19.7397 8.80118L25.1245 11.3004C25.1916 11.3316 25.2154 11.4093 25.1762 11.4687L19.8769 19.4623L16.1719 13.8736L19.4909 8.86703C19.5262 8.81386 19.5914 8.78333 19.6568 8.78333C19.6578 8.78333 19.6587 8.78347 19.6596 8.78361C19.6604 8.78373 19.6612 8.78385 19.6621 8.78388C19.6887 8.78453 19.7153 8.78981 19.7397 8.80118Z" fill="#677897"/>
</g>
</svg>
